<svg width="18" height="18" viewBox="0 0 18 18" fill="none" xmlns="http://www.w3.org/2000/svg">
<path fill-rule="evenodd" clip-rule="evenodd" d="M13.821 10.1836L9.9321 7.14007C9.69346 6.95331 9.30654 6.95331 9.0679 7.14007L5.17898 10.1836C4.94034 10.3704 4.94034 10.6732 5.17898 10.8599C5.41763 11.0467 5.80454 11.0467 6.04319 10.8599L9.5 8.15458L12.9568 10.8599C13.1955 11.0467 13.5824 11.0467 13.821 10.8599C14.0597 10.6732 14.0597 10.3704 13.821 10.1836Z" fill="#FF7070"/>
<path fill-rule="evenodd" clip-rule="evenodd" d="M13.821 10.1836L9.9321 7.14007C9.69346 6.95331 9.30654 6.95331 9.0679 7.14007L5.17898 10.1836C4.94034 10.3704 4.94034 10.6732 5.17898 10.8599C5.41763 11.0467 5.80454 11.0467 6.04319 10.8599L9.5 8.15458L12.9568 10.8599C13.1955 11.0467 13.5824 11.0467 13.821 10.8599C14.0597 10.6732 14.0597 10.3704 13.821 10.1836Z" fill="#FF7070"/>
<path fill-rule="evenodd" clip-rule="evenodd" d="M13.821 10.1836L9.9321 7.14007C9.69346 6.95331 9.30654 6.95331 9.0679 7.14007L5.17898 10.1836C4.94034 10.3704 4.94034 10.6732 5.17898 10.8599C5.41763 11.0467 5.80454 11.0467 6.04319 10.8599L9.5 8.15458L12.9568 10.8599C13.1955 11.0467 13.5824 11.0467 13.821 10.8599C14.0597 10.6732 14.0597 10.3704 13.821 10.1836Z" fill="#FF7070" stroke="#FF7070" stroke-width="0.4"/>
</svg>
