<svg width="18" height="18" viewBox="0 0 18 18" fill="none" xmlns="http://www.w3.org/2000/svg">
<path fill-rule="evenodd" clip-rule="evenodd" d="M13.821 12.1836L9.9321 9.14007C9.69346 8.95331 9.30654 8.95331 9.0679 9.14007L5.17898 12.1836C4.94034 12.3704 4.94034 12.6732 5.17898 12.8599C5.41763 13.0467 5.80454 13.0467 6.04319 12.8599L9.5 10.1546L12.9568 12.8599C13.1955 13.0467 13.5824 13.0467 13.821 12.8599C14.0597 12.6732 14.0597 12.3704 13.821 12.1836Z" fill="#FF7070" stroke="#FF7070" stroke-width="0.4"/>
<path fill-rule="evenodd" clip-rule="evenodd" d="M13.821 8.18359L9.9321 5.14007C9.69346 4.95331 9.30654 4.95331 9.0679 5.14007L5.17898 8.18359C4.94034 8.37035 4.94034 8.67316 5.17898 8.85993C5.41763 9.04669 5.80454 9.04669 6.04319 8.85993L9.5 6.15458L12.9568 8.85993C13.1955 9.04669 13.5824 9.04669 13.821 8.85993C14.0597 8.67316 14.0597 8.37035 13.821 8.18359Z" fill="#FF7070" stroke="#FF7070" stroke-width="0.4"/>
</svg>
