<svg width="18" height="18" viewBox="0 0 18 18" fill="none" xmlns="http://www.w3.org/2000/svg">
<path fill-rule="evenodd" clip-rule="evenodd" d="M13.821 5.81641L9.9321 8.85993C9.69346 9.04669 9.30654 9.04669 9.0679 8.85993L5.17898 5.81641C4.94034 5.62965 4.94034 5.32684 5.17898 5.14007C5.41763 4.95331 5.80454 4.95331 6.04319 5.14007L9.5 7.84542L12.9568 5.14007C13.1955 4.95331 13.5824 4.95331 13.821 5.14007C14.0597 5.32684 14.0597 5.62965 13.821 5.81641Z" fill="#90D77E" stroke="#90D77E" stroke-width="0.4"/>
<path fill-rule="evenodd" clip-rule="evenodd" d="M13.821 9.81641L9.9321 12.8599C9.69346 13.0467 9.30654 13.0467 9.0679 12.8599L5.17898 9.81641C4.94034 9.62965 4.94034 9.32684 5.17898 9.14007C5.41763 8.95331 5.80454 8.95331 6.04319 9.14007L9.5 11.8454L12.9568 9.14007C13.1955 8.95331 13.5824 8.95331 13.821 9.14007C14.0597 9.32684 14.0597 9.62965 13.821 9.81641Z" fill="#90D77E" stroke="#90D77E" stroke-width="0.4"/>
</svg>
