<svg width="27" height="27" viewBox="0 0 27 27" fill="none" xmlns="http://www.w3.org/2000/svg">
<path fill-rule="evenodd" clip-rule="evenodd" d="M4.5 11.7759H13.3931L8.94726 4.5L4.5 11.7759ZM12.0557 11.0259H5.8374L8.94581 5.93848L12.0557 11.0259Z" fill="#39772D"/>
<path d="M20.0991 7.4956H22.2876V8.78028H20.0991V10.9673H18.8159V8.78028H16.6274V7.4956H18.8159V5.30859H20.0991V7.4956Z" fill="#898A8D"/>
<path fill-rule="evenodd" clip-rule="evenodd" d="M20.2749 14.2222C22.3132 14.4293 23.9032 16.1517 23.9032 18.2446L23.8829 18.6577C23.6757 20.6959 21.9546 22.2859 19.8618 22.2861L19.4487 22.2657C17.546 22.0726 16.0327 20.5604 15.8394 18.6577L15.8188 18.2446C15.8189 16.0122 17.6294 14.2018 19.8618 14.2017L20.2749 14.2222ZM16.5689 18.2446C16.5689 16.4264 18.0436 14.9518 19.8618 14.9517C21.68 14.9519 23.1532 16.4265 23.1532 18.2446C23.1531 20.0626 21.6798 21.5359 19.8618 21.5361C18.0437 21.5361 16.5691 20.0628 16.5689 18.2446Z" fill="#2F60BA"/>
<path fill-rule="evenodd" clip-rule="evenodd" d="M12.5845 22.2861H5.30859V15.0103H12.5845V22.2861ZM11.8345 21.5361H6.05859V15.7603H11.8345V21.5361Z" fill="#9150AB"/>
</svg>
