<svg width="13" height="13" viewBox="0 0 13 13" fill="none" xmlns="http://www.w3.org/2000/svg">
<path d="M6.44444 0C6.88934 0 7.25 0.36066 7.25 0.805556V5.63889H12.0833C12.5282 5.63889 12.8889 5.99955 12.8889 6.44444C12.8889 6.88934 12.5282 7.25 12.0833 7.25H7.25V12.0833C7.25 12.5282 6.88934 12.8889 6.44444 12.8889C5.99955 12.8889 5.63889 12.5282 5.63889 12.0833V7.25H0.805556C0.36066 7.25 0 6.88934 0 6.44444C0 5.99955 0.36066 5.63889 0.805556 5.63889H5.63889V0.805556C5.63889 0.36066 5.99955 0 6.44444 0Z" fill="#898A8D"/>
</svg>
